<?xml version="1.0" encoding="utf-8"?>
<!-- Generator: Adobe Illustrator 24.3.0, SVG Export Plug-In . SVG Version: 6.00 Build 0)  -->
<svg version="1.1" id="Layer_1" xmlns="http://www.w3.org/2000/svg" xmlns:xlink="http://www.w3.org/1999/xlink" x="0px" y="0px"
	 viewBox="0 0 263 163.8" style="enable-background:new 0 0 263 163.8;" xml:space="preserve">
<style type="text/css">
	.st0{fill:#FFFFFF;}
</style>
<path class="st0" d="M0,0h7.2c23.7,0,47.3,0,71,0c9.5,0,18.8,1.2,27.6,5.2c13.8,6.3,21.1,17.2,22.7,32.1c0.6,5.2,0.3,10.5-0.8,15.7
	c-1.7,8.6-7,16.1-14.5,20.5c-1.3,0.8-2.6,1.6-3.9,2.3c3.2,1.8,6.4,3.3,9.3,5.3c9,6.3,13.5,15.3,14.9,26c2,15.2-1.7,28.8-11.9,40.4
	c-7.8,8.9-17.9,13.2-29.4,15c-11.3,1.8-22.6,1.2-33.9,1.3c-18.7,0.1-37.5,0-56.2,0H0V0z M37.7,135.3c0.7,0,1.2,0.1,1.7,0.1
	c11.3,0,22.7,0.1,34,0c3,0,6.1-0.3,9.1-0.9c8.9-1.5,14.7-6.9,16.2-15.3c0.6-3.4,0.8-6.8,0.5-10.2c-0.5-6.8-3.9-12.1-10.5-14.4
	c-4.1-1.5-8.5-2.4-12.9-2.6c-12.1-0.4-24.2-0.2-36.4-0.2c-0.5,0-1.1,0.1-1.8,0.2L37.7,135.3z M37.7,64.5c0.6,0.1,1,0.1,1.3,0.1
	c11.5,0,23.1,0,34.6,0c4.7,0,9.3-0.9,13.6-2.7c4.6-2.1,7.8-5.5,8.5-10.5c0.5-3.2,0.5-6.5,0.1-9.7c-0.9-5.7-4.3-9.7-10.1-11
	c-3.9-1-7.9-1.6-12-1.8c-11.5-0.3-22.9-0.2-34.4-0.2c-0.5,0-1,0.1-1.5,0.2L37.7,64.5z"/>
<path class="st0" d="M177.8,108.8c-0.2,17,9.8,27.1,24,28.8c5.9,0.7,11.7,0.4,17.3-2.2c4.2-2,7.7-5.3,10.1-9.3
	c0.5-0.8,1.3-1.3,2.2-1.5c9.5-0.1,19-0.1,28.5-0.1c0.5,0,0.9,0.1,1.4,0.2c-0.6,4.4-2.1,8.6-4.6,12.4c-9.2,14.4-22.3,22.6-39.2,25
	c-12.6,1.8-24.9,0.9-36.7-4c-19.3-7.9-30.6-22.1-33.1-42.9c-1.7-13.8-1.4-27.4,3.1-40.6c6.9-20.2,25.2-34.3,46.5-35.8
	c11.7-0.9,23.1,0,33.9,4.7c16.3,7,25.4,20.1,29.7,36.9c2.3,8.9,2,18,2.2,27c0,1.7-1,1.6-2.1,1.6h-80.1
	C179.8,108.8,178.9,108.8,177.8,108.8z M178.4,88.3h52.3c0.2-13.2-9.3-23.7-23.6-24.7C188.7,62.4,180.1,74.2,178.4,88.3z"/>
<path class="st0" d="M171.6,23.1V7h65.7v16L171.6,23.1z"/>
</svg>
