<?xml version="1.0" encoding="utf-8"?>
<!-- Generator: Adobe Illustrator 24.3.0, SVG Export Plug-In . SVG Version: 6.00 Build 0)  -->
<svg version="1.1" id="Layer_1" xmlns="http://www.w3.org/2000/svg" xmlns:xlink="http://www.w3.org/1999/xlink" x="0px" y="0px"
	 viewBox="0 0 161.9 162" style="enable-background:new 0 0 161.9 162;" xml:space="preserve">
<style type="text/css">
	.st0{fill:#FFFFFF;}
</style>
<path class="st0" d="M37.8,64.8c10.9,28.7,30.7,48.5,59.5,59.4c0.8-2.6,1.5-5,2.4-7.3c1.8-4.5,1.9-4.4,6.7-3.6
	c16.4,2.6,32.8,5.2,49.2,7.8c0.2,0,0.4,0,0.5,0.1c5.3,0.8,5.4,0.8,5.7,6.2c0.6,11.3-3.6,20.6-12.5,27.7c-6,4.8-13,6.9-20.6,6.9
	c-50.6-0.3-96.4-30.1-117.3-76.2C3.9,69,0.1,51.4,0,32.9C-0.1,14.2,14.8-0.4,33.5,0c6.3,0.1,6.4,0.3,7.3,6.4
	c2.7,17.2,5.4,34.4,8.2,51.5c0.3,1.6,0,2.5-1.5,3.1C44.4,62.2,41.3,63.4,37.8,64.8z"/>
</svg>
