<?xml version="1.0" encoding="utf-8"?>
<!-- Generator: Adobe Illustrator 24.3.0, SVG Export Plug-In . SVG Version: 6.00 Build 0)  -->
<svg version="1.1" id="Layer_1" xmlns="http://www.w3.org/2000/svg" xmlns:xlink="http://www.w3.org/1999/xlink" x="0px" y="0px"
	 viewBox="0 0 566.9 566.9" style="enable-background:new 0 0 566.9 566.9;" xml:space="preserve">
<g id="Layer_1_1_">
</g>
<g>
	<g>
		<path d="M312.8,303.2l-5.1,15.9h-14.1l22.6-65h18.1l22.6,65h-14.1l-5-15.9H312.8z M332.7,287.4c-3-9.5-5.5-18-7.4-25.4H325
			c-2.3,8.5-4.7,17-7.3,25.4l-1.4,4.3H334L332.7,287.4z"/>
		<path d="M363.2,319.1v-65H376v65H363.2z"/>
		<path d="M388.5,265v-11h12.8v11H388.5z M388.5,319.1v-46.4h12.8v46.4H388.5z"/>
	</g>
	<g>
		<g>
			<polygon points="267.2,227 267.2,249.6 244.7,249.6 244.7,227 199.4,339.9 244.7,339.9 244.7,264.7 267.2,264.7 267.2,339.9 
				278.5,339.9 278.5,227 			"/>
		</g>
		<g>
			<polygon points="165.7,227 165.7,339.9 176.9,339.9 222.1,227 			"/>
		</g>
	</g>
</g>
</svg>
