<?xml version="1.0" encoding="utf-8"?>
<!-- Generator: Adobe Illustrator 24.3.0, SVG Export Plug-In . SVG Version: 6.00 Build 0)  -->
<svg version="1.1" id="Layer_1" xmlns="http://www.w3.org/2000/svg" xmlns:xlink="http://www.w3.org/1999/xlink" x="0px" y="0px"
	 viewBox="0 0 566.9 271.6" style="enable-background:new 0 0 566.9 271.6;" xml:space="preserve">
<style type="text/css">
	.st0{fill:#FFFFFF;}
</style>
<g id="Layer_1_1_">
</g>
<g id="Layer_2_1_">
	<g>
		<g>
			<path class="st0" d="M354,183.3l-12.3,38.3h-33.9l54.4-156.4h43.5l54.4,156.4h-33.9l-12-38.3H354z M401.9,145.3
				c-7.2-22.9-13.2-43.3-17.8-61.1h-0.5c-5.5,20.4-11.3,40.9-17.6,61.1l-3.4,10.3H405L401.9,145.3z"/>
			<path class="st0" d="M475.5,221.3V65h30.8v156.4H475.5z"/>
			<path class="st0" d="M536.1,91.4V65h30.8v26.5H536.1z M536.1,221.3V109.7h30.8v111.6H536.1z"/>
		</g>
		<g>
			<g>
				<polygon class="st0" points="0.1,0 0.1,271.6 27,271.6 135.8,0 				"/>
			</g>
			<g>
				<polygon class="st0" points="244.3,0 244.3,54.4 189.9,54.4 189.9,0 81.4,271.6 189.9,271.6 189.9,90.7 244.3,90.7 244.3,271.6 
					271.5,271.6 271.5,0 				"/>
			</g>
		</g>
	</g>
</g>
</svg>
