<?xml version="1.0" encoding="utf-8"?>
<!-- Generator: Adobe Illustrator 24.3.0, SVG Export Plug-In . SVG Version: 6.00 Build 0)  -->
<svg version="1.1" id="Layer_1" xmlns="http://www.w3.org/2000/svg" xmlns:xlink="http://www.w3.org/1999/xlink" x="0px" y="0px"
	 viewBox="0 0 160.8 163.8" style="enable-background:new 0 0 160.8 163.8;" xml:space="preserve">
<style type="text/css">
	.st0{fill:#FFFFFF;}
</style>
<g>
	<path class="st0" d="M160.7,82c0,14.1,0.2,28.1-0.1,42.2c-0.3,15-7.1,26.4-19.9,34.2c-6.3,3.8-13.2,5.5-20.5,5.5
		c-26.6,0-53.2,0-79.8,0c-9.9,0-18.7-3.2-26.3-9.6C7.4,148.6,3,141.4,1,132.9c-0.7-3.1-1.1-6.2-1.1-9.3c0-27.7,0-55.4,0-83.1
		c0-12.1,4.6-22.3,13.6-30.3C19.3,5,25.9,1.9,33.4,0.6C35.7,0.2,38,0,40.3,0C67,0,93.7,0,120.5,0c14.7,0,28.1,7.9,35.3,20.8
		c3.4,6.1,5,12.7,5,19.7C160.7,54.3,160.7,68.1,160.7,82L160.7,82z M148.2,82c0-11.9,0-23.8,0-35.7c0-4.4-0.9-8.6-2.6-12.6
		c-2.8-6.6-7.2-11.8-13.3-15.7c-5.3-3.4-11.2-5.2-17.5-5.2c-22.8,0-45.5,0-68.3,0c-1.4,0-2.8,0.1-4.2,0.2c-7.6,0.9-14.1,4-19.5,9.3
		c-6.9,6.7-10.3,15-10.3,24.6c0,23.3,0,46.6,0,70c0,2.4,0.2,4.8,0.7,7.2c1.3,6.1,4,11.5,8.3,16.1c6.8,7.3,15.2,10.9,25.2,10.9
		c22.4,0,44.9,0,67.3,0c1.6,0,3.3-0.1,4.9-0.3c6.2-0.9,11.7-3.2,16.5-7.1c8.3-6.8,12.6-15.6,12.7-26.4
		C148.3,105.5,148.2,93.8,148.2,82z"/>
	<path class="st0" d="M80.4,40.8c22.4,0,41,18.1,41.1,41c0.1,23-18.5,41.2-41,41.3c-22.6,0-40.7-18-41.2-40.2
		C38.7,59.6,57.5,40.8,80.4,40.8z M110.6,82c0-0.7,0-1.3,0-2c-0.5-7.4-3.1-13.9-8.2-19.3c-7.2-7.7-16.1-10.9-26.6-9.4
		c-7.4,1.1-13.5,4.6-18.3,10.3c-6.1,7.3-8.4,15.8-7,25.2c1,6.5,3.8,12.2,8.4,16.9c6.7,6.8,14.9,9.9,24.5,9
		c6.1-0.6,11.6-2.9,16.2-6.9C106.9,99.6,110.4,91.5,110.6,82z"/>
	<path class="st0" d="M110.6,39.1c0-6.9,5.6-12.4,12.5-12.3c6.8,0,12.3,5.6,12.3,12.4s-5.6,12.3-12.4,12.3
		C116.1,51.5,110.6,45.9,110.6,39.1z"/>
</g>
</svg>
