<?xml version="1.0" encoding="utf-8"?>
<!-- Generator: Adobe Illustrator 24.3.0, SVG Export Plug-In . SVG Version: 6.00 Build 0)  -->
<svg version="1.1" id="Layer_1" xmlns="http://www.w3.org/2000/svg" xmlns:xlink="http://www.w3.org/1999/xlink" x="0px" y="0px"
	 viewBox="0 0 263 162" style="enable-background:new 0 0 263 162;" xml:space="preserve">
<style type="text/css">
	.st0{fill:#FFFFFF;}
</style>
<g>
	<path class="st0" d="M88.7,71.7c-12.8,14.4-25.3,28.5-37.8,42.6c-4.5,5.1-9.1,10.2-13.6,15.4c-0.8,1-1,2.5-1.5,3.7
		c1.4-0.4,3.1-0.3,4-1.1c20-16.6,39.8-33.3,59.6-50c0.8-0.7,1.6-1.3,2.5-2.1c4.8,3.1,9.6,6.2,14.4,9.1c10.4,6.3,20.9,6.3,31.3,0
		c4.9-2.9,9.6-6.1,14.6-9.2c8.9,7.5,17.7,15,26.6,22.4c11.6,9.8,23.2,19.6,34.8,29.3c1.2,1,3,1.1,4.6,1.6c-0.6-1.4-0.9-3.1-1.9-4.2
		c-16.3-18.5-32.7-36.9-49.1-55.3c-0.6-0.7-1.2-1.4-1.9-2.2c0.5-0.4,0.9-0.8,1.3-1c25.2-17.1,50.3-34.2,75.5-51.3
		c2.3-1.5,4.6-3,7.1-4.1c2.4-1.1,3.5-0.2,3.6,2.5c0,0.7,0,1.5,0,2.2c0,42.1-0.2,84.3,0.2,126.4c0.1,7.9-8.4,15.6-15.7,15.6
		c-76.9-0.2-153.8-0.2-230.7-0.1c-6.8,0-11.6-3.3-15.2-8.6c-1-1.5-1.5-3.5-1.5-5.3c0-43,0-85.9,0-128.7c0-4.4,1.8-5.5,5.7-3.4
		c3.4,1.9,6.6,4.1,9.8,6.3C39.3,38.3,63.1,54.3,87,70.4C87.5,70.8,88,71.2,88.7,71.7z"/>
	<path class="st0" d="M132.1,0c39.8,0,79.7,0,119.5,0c1.5,0,3-0.1,4.4,0.1c4.6,0.6,6.2,4.2,3.2,7.9c-1.4,1.7-3.3,3-5.2,4
		c-36.2,19.8-72.4,39.5-108.7,59.1c-8.6,4.6-17.9,4.6-26.4,0C82.4,51.5,46.3,31.8,10,12c-3-1.6-5.9-3.3-6.4-7.2
		C3.3,2.6,4.1,1,6.4,0.6C8.2,0.2,10.1,0,12,0C52,0,92.1,0,132.1,0z"/>
</g>
</svg>
