<?xml version="1.0" encoding="utf-8"?>
<!-- Generator: Adobe Illustrator 24.3.0, SVG Export Plug-In . SVG Version: 6.00 Build 0)  -->
<svg version="1.1" id="Layer_1" xmlns="http://www.w3.org/2000/svg" xmlns:xlink="http://www.w3.org/1999/xlink" x="0px" y="0px"
	 viewBox="0 0 172.1 172.1" style="enable-background:new 0 0 172.1 172.1;" xml:space="preserve">
<style type="text/css">
	.st0{fill:#FFFFFF;}
</style>
<g>
	<path class="st0" d="M72.1,6.4c1.1,0.6,1.8,1.7,2.2,3.4l-1.9,0.5c-0.3-1.1-0.7-1.8-1.4-2.2c-0.7-0.4-1.6-0.5-2.7-0.2
		c-0.9,0.2-1.6,0.6-2,1.1c-0.4,0.5-0.6,1.2-0.4,1.9c0.1,0.5,0.3,0.9,0.7,1.2c0.3,0.3,0.8,0.4,1.3,0.5c0.5,0.1,1.3,0.1,2.3,0.1
		c1.2,0,2.2,0.1,3,0.2c0.8,0.1,1.4,0.4,2,0.9c0.6,0.5,1,1.2,1.2,2.2c0.2,0.9,0.2,1.7-0.1,2.5c-0.3,0.8-0.8,1.4-1.5,2
		c-0.7,0.6-1.6,1-2.7,1.2c-1.8,0.4-3.2,0.3-4.4-0.4c-1.2-0.7-2-1.8-2.4-3.6l2-0.5c0.3,1.2,0.8,2,1.6,2.5c0.8,0.4,1.7,0.5,2.9,0.3
		c1.1-0.2,1.8-0.7,2.3-1.3c0.5-0.6,0.6-1.3,0.4-2.2c-0.1-0.5-0.4-0.9-0.7-1.2c-0.3-0.3-0.8-0.4-1.3-0.5c-0.5-0.1-1.3-0.1-2.3-0.1
		c-1.2,0-2.2-0.1-2.9-0.2c-0.8-0.1-1.4-0.4-1.9-0.9c-0.5-0.5-0.9-1.2-1.1-2.1c-0.2-0.8-0.2-1.6,0.1-2.3c0.3-0.7,0.7-1.3,1.4-1.9
		c0.7-0.5,1.5-0.9,2.5-1.1C69.6,5.7,71,5.8,72.1,6.4z"/>
	<path class="st0" d="M85.7,8.7c0.7,0.3,1.3,0.8,1.7,1.4c0.4,0.6,0.7,1.3,0.8,2.1l-2,0.1c-0.1-0.8-0.4-1.4-0.9-1.8
		c-0.5-0.5-1.2-0.7-1.9-0.6c-1,0.1-1.7,0.5-2.2,1.2c-0.5,0.8-0.7,1.8-0.7,3.1c0.1,1.3,0.4,2.3,1,3c0.6,0.7,1.4,1.1,2.3,1
		c0.7,0,1.4-0.3,1.8-0.9c0.5-0.5,0.7-1.2,0.7-2l2-0.1c0,0.8-0.2,1.6-0.6,2.3c-0.4,0.7-0.9,1.2-1.5,1.6c-0.7,0.4-1.4,0.6-2.3,0.7
		c-1,0.1-2-0.1-2.8-0.6c-0.8-0.4-1.4-1.1-1.9-1.9c-0.5-0.8-0.7-1.9-0.8-3c-0.1-1.2,0.1-2.2,0.5-3.1c0.4-0.9,0.9-1.6,1.7-2.1
		c0.7-0.5,1.6-0.8,2.7-0.8C84.2,8.3,85,8.4,85.7,8.7z"/>
	<path class="st0" d="M97.8,9.1l-0.1,1.7c-0.5-0.1-0.7-0.1-0.7-0.1c-1-0.1-1.8,0.2-2.5,0.8s-1,1.5-1.1,2.7l-0.5,5.6L91,19.5L92,8.6
		l1.8,0.2l-0.1,1.7l0,0c0.8-1.1,1.9-1.6,3.4-1.5C97.3,9,97.6,9,97.8,9.1z"/>
	<path class="st0" d="M108.5,12.6c0.7,1.2,0.8,2.7,0.4,4.4c-0.4,1.7-1.2,3-2.3,3.8c-1.1,0.8-2.5,1-4.1,0.7c-1.6-0.4-2.7-1.1-3.4-2.4
		c-0.7-1.2-0.8-2.7-0.4-4.4c0.4-1.7,1.2-3,2.3-3.8c1.1-0.8,2.5-1,4-0.7C106.7,10.6,107.8,11.4,108.5,12.6z M102.2,12.3
		c-0.7,0.6-1.2,1.5-1.5,2.8s-0.2,2.3,0.1,3.2c0.4,0.9,1.1,1.4,2,1.6c1,0.2,1.8,0,2.6-0.6c0.7-0.6,1.2-1.5,1.5-2.8
		c0.3-1.3,0.2-2.3-0.1-3.2c-0.4-0.9-1.1-1.4-2.1-1.6C103.8,11.5,102.9,11.7,102.2,12.3z"/>
	<path class="st0" d="M110,23.3l5.3-14.4l1.8,0.7L111.7,24L110,23.3z"/>
	<path class="st0" d="M115,25.3l6.4-13.9l1.7,0.8l-6.4,13.9L115,25.3z"/>
	<path class="st0" d="M140.9,26.1c0.3,1.9-0.3,3.8-1.8,5.7c-1.5,1.9-3.2,3-5.1,3.2c-1.9,0.2-3.9-0.5-5.9-2l-3.7-2.9l9.4-12.1
		l3.7,2.9C139.5,22.5,140.6,24.2,140.9,26.1z M127,30l2.1,1.6c1.5,1.2,3,1.7,4.4,1.5c1.4-0.2,2.7-1,3.9-2.5c1.2-1.5,1.7-3,1.5-4.4
		c-0.2-1.4-1-2.7-2.5-3.9l-2.1-1.6L127,30z"/>
	<path class="st0" d="M148.7,39.7c-0.2,1.4-0.9,2.7-2.3,3.8c-1.4,1.2-2.7,1.7-4.1,1.7c-1.4,0-2.6-0.7-3.7-1.9
		c-1-1.2-1.5-2.5-1.3-3.9c0.2-1.4,0.9-2.6,2.3-3.8c1.3-1.2,2.7-1.7,4.1-1.7c1.4,0,2.6,0.7,3.6,1.9C148.4,37,148.9,38.3,148.7,39.7z
		 M143.8,35.8c-0.9,0.1-1.9,0.5-2.9,1.4c-1,0.9-1.6,1.7-1.8,2.7c-0.2,0.9,0,1.8,0.7,2.5c0.7,0.8,1.5,1.1,2.4,1.1
		c0.9-0.1,1.9-0.5,2.9-1.4c1-0.9,1.6-1.7,1.8-2.7c0.2-0.9,0-1.8-0.7-2.5C145.6,36.1,144.8,35.7,143.8,35.8z"/>
	<path class="st0" d="M148,56.8l3.5-3.4c0.5-0.4,0.8-0.7,0.9-0.8c1-0.9,1.8-1.8,2.7-2.5l0,0c-1.1,0.3-2.2,0.6-3.5,0.9
		c-0.2,0.1-0.6,0.2-1.2,0.3l-4.8,1.2l-1.3-2.4l8.2-7.8l0.9,1.7l-3.4,3.2c-1,1-2.3,2.1-3.7,3.4l0,0c1.6-0.5,3.2-0.9,4.8-1.3l4.7-1.2
		l1.3,2.4l-3.5,3.3l-3.6,3.4l0,0c1.9-0.5,3.5-0.9,4.9-1.3l4.6-1.2l0.9,1.7l-11,2.7L148,56.8z"/>
	<path class="st0" d="M162.9,68.1c-0.5,0.9-1.5,1.5-2.9,2l-6.4,1.9l-0.5-1.8l6.2-1.9c1.1-0.3,1.8-0.8,2.1-1.3c0.3-0.6,0.4-1.2,0.1-2
		c-0.2-0.8-0.7-1.3-1.4-1.7c-0.7-0.3-1.6-0.4-2.6-0.1l-6,1.8l-0.5-1.8l10.5-3.2l0.5,1.8l-1.4,0.4l0,0c0.6,0.2,1.1,0.5,1.6,1
		c0.5,0.5,0.8,1,1,1.7C163.5,66.2,163.5,67.3,162.9,68.1z"/>
	<path class="st0" d="M160.9,91.7c-1.4,0-2.7-0.5-3.7-1.5c-1-1-1.6-2.2-1.6-3.7c0-1.5,0.5-2.7,1.5-3.7c1-1,2.2-1.6,3.7-1.6
		c1.4,0,2.7,0.5,3.7,1.5c1,1,1.6,2.2,1.6,3.7c0,1.4-0.5,2.7-1.5,3.7C163.6,91.2,162.3,91.7,160.9,91.7z"/>
	<path class="st0" d="M165.4,113.4c-1.1,0.7-2.4,0.8-4,0.3l0.5-1.9c1.1,0.3,2,0.2,2.7-0.2c0.7-0.4,1.2-1.2,1.5-2.3
		c0.3-0.9,0.3-1.7,0-2.3c-0.3-0.6-0.8-1.1-1.5-1.3c-0.5-0.1-1-0.1-1.3,0c-0.4,0.2-0.7,0.5-1.1,0.9c-0.3,0.4-0.7,1.1-1.2,1.9
		c-0.6,1.1-1.1,1.9-1.6,2.5c-0.5,0.6-1.1,1-1.8,1.3c-0.7,0.3-1.5,0.3-2.5,0c-0.9-0.2-1.6-0.7-2.1-1.3c-0.5-0.6-0.9-1.4-1-2.3
		c-0.1-0.9,0-1.9,0.3-2.9c0.5-1.7,1.3-3,2.5-3.7c1.2-0.7,2.6-0.8,4.3-0.4l-0.6,2c-1.2-0.3-2.2-0.3-2.9,0.2c-0.8,0.5-1.3,1.2-1.6,2.4
		c-0.3,1-0.3,1.9,0,2.6c0.3,0.7,0.9,1.2,1.7,1.4c0.5,0.1,1,0.1,1.4,0c0.4-0.2,0.7-0.5,1.1-0.9c0.3-0.4,0.7-1.1,1.2-1.9
		c0.6-1.1,1.1-1.9,1.6-2.5c0.5-0.6,1.1-1,1.7-1.3c0.7-0.3,1.5-0.2,2.4,0c0.8,0.2,1.4,0.6,1.9,1.2c0.5,0.6,0.8,1.3,1,2.1
		c0.1,0.8,0.1,1.7-0.2,2.7C167.3,111.6,166.5,112.8,165.4,113.4z"/>
	<path class="st0" d="M156.8,124.2c-0.6,0.5-1.3,0.7-2,0.8c-0.7,0.1-1.5,0-2.3-0.3l0.9-1.8c0.7,0.3,1.4,0.3,2.1,0.1
		c0.7-0.2,1.1-0.7,1.5-1.3c0.4-0.9,0.4-1.7,0-2.5c-0.4-0.8-1.2-1.5-2.4-2.1c-1.2-0.6-2.2-0.8-3.1-0.6c-0.9,0.2-1.6,0.7-2,1.6
		c-0.3,0.7-0.4,1.3-0.1,2c0.3,0.7,0.7,1.2,1.4,1.6l-0.9,1.8c-0.7-0.4-1.3-1-1.7-1.6c-0.4-0.6-0.6-1.4-0.7-2.1c0-0.8,0.1-1.6,0.5-2.3
		c0.5-0.9,1.1-1.7,1.8-2.1c0.8-0.5,1.6-0.7,2.6-0.7c1,0,2,0.3,3,0.8c1.1,0.5,1.9,1.2,2.5,1.9c0.6,0.8,0.9,1.6,1,2.5
		c0.1,0.9-0.1,1.8-0.6,2.8C157.9,123.1,157.4,123.7,156.8,124.2z"/>
	<path class="st0" d="M150.5,134.6l-1.4-1c0.3-0.4,0.5-0.6,0.5-0.6c0.6-0.9,0.8-1.7,0.5-2.5c-0.2-0.8-0.8-1.6-1.8-2.3l-4.6-3.1
		l1.1-1.6l9,6.1l-1,1.5l-1.4-0.9l0,0c0.6,1.3,0.5,2.5-0.3,3.7C150.9,134.2,150.7,134.4,150.5,134.6z"/>
	<path class="st0" d="M142.3,142.2c-1.4,0-2.7-0.6-4.1-1.8c-1.3-1.2-2-2.5-2.2-3.9c-0.1-1.4,0.3-2.7,1.4-3.9
		c1.1-1.2,2.3-1.8,3.7-1.8c1.4,0,2.7,0.6,4.1,1.8c1.3,1.2,2,2.5,2.2,3.9c0.1,1.4-0.3,2.7-1.4,3.9
		C144.9,141.6,143.7,142.2,142.3,142.2z M145.6,136.8c-0.2-0.9-0.7-1.8-1.7-2.7s-1.9-1.4-2.9-1.4c-0.9-0.1-1.7,0.2-2.4,1
		c-0.7,0.7-0.9,1.6-0.8,2.5c0.2,0.9,0.7,1.8,1.7,2.7s1.9,1.4,2.9,1.4c0.9,0.1,1.8-0.3,2.4-1C145.5,138.6,145.8,137.8,145.6,136.8z"
		/>
	<path class="st0" d="M132.2,138.3l10,11.6l-1.4,1.2l-10-11.6L132.2,138.3z"/>
	<path class="st0" d="M128,141.7l9,12.4l-1.5,1.1l-9-12.4L128,141.7z"/>
	<path class="st0" d="M114.7,163.9c-1.8-0.7-3.2-2.2-4.1-4.4c-1-2.3-1.1-4.3-0.3-6c0.7-1.8,2.3-3.1,4.6-4.1l4.3-1.8l6,14.1l-4.3,1.8
		C118.5,164.5,116.5,164.6,114.7,163.9z M118,149.9l-2.5,1c-1.8,0.7-2.9,1.8-3.4,3.1c-0.5,1.3-0.4,2.9,0.3,4.6s1.8,2.9,3.1,3.5
		c1.3,0.5,2.9,0.4,4.6-0.3l2.5-1L118,149.9z"/>
	<path class="st0" d="M99,164.1c-1.1-0.8-1.9-2.1-2.2-3.9c-0.4-1.7-0.2-3.2,0.5-4.4c0.7-1.2,1.9-2,3.4-2.3c1.6-0.3,2.9-0.1,4,0.8
		c1.1,0.8,1.8,2.1,2.2,3.9c0.4,1.7,0.2,3.2-0.5,4.4c-0.7,1.2-1.8,2-3.4,2.3C101.5,165.2,100.1,164.9,99,164.1z M104.8,161.8
		c0.4-0.9,0.5-1.9,0.2-3.2c-0.3-1.3-0.7-2.2-1.5-2.9c-0.7-0.6-1.6-0.8-2.5-0.6c-1,0.2-1.7,0.7-2.1,1.6c-0.4,0.9-0.5,1.9-0.2,3.2
		c0.3,1.3,0.7,2.2,1.5,2.9c0.7,0.6,1.6,0.8,2.5,0.6C103.7,163.1,104.4,162.6,104.8,161.8z"/>
	<path class="st0" d="M84.4,155.1l1.2,4.8c0.1,0.6,0.2,1,0.3,1.2c0.3,1.3,0.6,2.5,0.8,3.5l0,0c0.3-1.1,0.6-2.2,1-3.5
		c0-0.2,0.2-0.6,0.3-1.2l1.4-4.7l2.7,0l2.7,11l-1.9,0l-1.1-4.6c-0.3-1.4-0.7-3-1.1-4.9l0,0c-0.4,1.6-0.8,3.2-1.3,4.8l-1.3,4.6
		l-2.7,0l-1.2-4.7l-1.1-4.8l0,0c-0.5,1.9-0.9,3.5-1.3,4.9l-1.2,4.5l-1.9,0l3.1-10.9L84.4,155.1z"/>
	<path class="st0" d="M67.2,162.7c-0.5-0.9-0.6-2.1-0.3-3.5l1.4-6.5l1.9,0.4l-1.4,6.4c-0.2,1.1-0.2,1.9,0.1,2.5
		c0.3,0.6,0.9,0.9,1.7,1.1s1.5,0,2.2-0.4c0.7-0.5,1.1-1.2,1.3-2.2l1.3-6.1l1.9,0.4L75,165.3l-1.8-0.4l0.3-1.4l0,0
		c-0.4,0.4-1,0.7-1.6,0.9c-0.6,0.2-1.3,0.2-2,0C68.6,164.1,67.8,163.6,67.2,162.7z"/>
	<path class="st0" d="M46.7,148.8c0.7-1.3,1.8-2.1,3.2-2.5c1.4-0.4,2.7-0.2,4,0.5c1.3,0.7,2.1,1.8,2.5,3.2c0.4,1.4,0.2,2.7-0.5,4
		c-0.7,1.3-1.8,2.1-3.2,2.5c-1.4,0.4-2.7,0.2-4-0.5c-1.3-0.7-2.1-1.8-2.5-3.2C45.8,151.4,46,150,46.7,148.8z"/>
	<path class="st0" d="M25.7,141.9c0-1.2,0.6-2.5,1.7-3.6l1.4,1.4c-0.8,0.8-1.2,1.6-1.2,2.4c0,0.8,0.4,1.6,1.2,2.5
		c0.7,0.7,1.3,1.1,2,1.1c0.7,0.1,1.3-0.1,1.8-0.6c0.4-0.4,0.6-0.8,0.6-1.2c0.1-0.4,0-0.9-0.2-1.4c-0.2-0.5-0.6-1.2-1-2
		c-0.6-1-1.1-1.9-1.3-2.6c-0.3-0.7-0.4-1.4-0.2-2.2c0.1-0.7,0.5-1.4,1.2-2.1c0.6-0.6,1.4-1,2.2-1.2c0.8-0.1,1.6-0.1,2.5,0.3
		s1.6,0.9,2.4,1.7c1.3,1.3,1.9,2.6,1.9,4c0,1.4-0.6,2.6-1.8,3.9l-1.4-1.5c0.9-0.9,1.3-1.7,1.3-2.6c0-0.9-0.4-1.8-1.2-2.6
		c-0.8-0.8-1.5-1.2-2.3-1.3c-0.8-0.1-1.4,0.2-2.1,0.8c-0.4,0.4-0.6,0.8-0.7,1.2c-0.1,0.4,0,0.9,0.2,1.4c0.2,0.5,0.6,1.2,1.1,2
		c0.6,1,1.1,1.9,1.3,2.6c0.3,0.7,0.3,1.4,0.2,2.1c-0.1,0.7-0.5,1.4-1.2,2.1c-0.6,0.6-1.3,0.9-2,1.1c-0.7,0.1-1.5,0.1-2.3-0.2
		c-0.8-0.3-1.5-0.8-2.3-1.5C26.4,144.4,25.7,143.1,25.7,141.9z"/>
	<path class="st0" d="M20.7,129c-0.1-0.8,0-1.5,0.3-2.2c0.3-0.7,0.8-1.3,1.4-1.8l1.1,1.6c-0.6,0.5-1,1.1-1.1,1.8
		c-0.1,0.7,0,1.3,0.4,2c0.5,0.8,1.3,1.2,2.2,1.3c0.9,0,1.9-0.3,3-1c1.1-0.7,1.8-1.5,2.1-2.4c0.3-0.9,0.2-1.7-0.3-2.5
		c-0.4-0.6-1-1-1.7-1.1c-0.7-0.1-1.4,0-2.1,0.4l-1.1-1.6c0.7-0.4,1.5-0.6,2.2-0.7c0.8,0,1.5,0.1,2.2,0.5c0.7,0.4,1.3,0.9,1.8,1.6
		c0.6,0.9,0.9,1.8,0.9,2.7c0,0.9-0.2,1.8-0.7,2.6c-0.5,0.8-1.2,1.6-2.2,2.2c-1,0.7-1.9,1.1-2.9,1.2s-1.8,0-2.7-0.4
		c-0.8-0.4-1.5-1-2.1-1.9C21.1,130.5,20.8,129.8,20.7,129z"/>
	<path class="st0" d="M14.8,118.4l1.5-0.7c0.2,0.4,0.3,0.7,0.3,0.7c0.5,0.9,1.1,1.5,1.9,1.7c0.8,0.2,1.8,0.1,2.9-0.5l5-2.4l0.8,1.7
		l-9.8,4.8l-0.8-1.6l1.5-0.7l0,0c-1.4-0.1-2.4-0.8-3-2.1C14.9,118.9,14.8,118.6,14.8,118.4z"/>
	<path class="st0" d="M12.3,107.5c0.7-1.2,1.9-2.1,3.6-2.6c1.7-0.5,3.2-0.5,4.4,0c1.3,0.6,2.2,1.6,2.6,3.2c0.5,1.5,0.4,2.9-0.3,4.1
		c-0.7,1.2-1.9,2.1-3.6,2.6c-1.7,0.5-3.2,0.5-4.4,0c-1.3-0.6-2.1-1.6-2.6-3.1C11.5,110.1,11.6,108.7,12.3,107.5z M15.3,113
		c0.9,0.3,2,0.3,3.2-0.1c1.2-0.4,2.1-1,2.7-1.8c0.5-0.8,0.7-1.6,0.4-2.6c-0.3-1-0.9-1.6-1.8-1.9c-0.9-0.3-2-0.3-3.2,0.1
		c-1.2,0.4-2.1,1-2.7,1.8c-0.5,0.8-0.7,1.6-0.3,2.6C13.8,112.1,14.4,112.7,15.3,113z"/>
	<path class="st0" d="M20.8,100.7l-15.1,2.8l-0.3-1.9l15.1-2.8L20.8,100.7z"/>
	<path class="st0" d="M19.9,95.4L4.7,97l-0.2-1.9l15.2-1.6L19.9,95.4z"/>
	<path class="st0" d="M7.3,72.7c1.5-1.2,3.4-1.7,5.9-1.4c2.4,0.3,4.2,1.2,5.4,2.7c1.2,1.5,1.6,3.6,1.3,6.1l-0.6,4.6L4.1,83l0.6-4.6
		C4.9,75.8,5.8,73.9,7.3,72.7z M17.8,82.6l0.3-2.6c0.2-1.9-0.1-3.4-1-4.5c-0.9-1.1-2.3-1.8-4.2-2c-1.9-0.2-3.4,0.1-4.5,1
		s-1.8,2.3-2,4.2L6,81.2L17.8,82.6z"/>
	<path class="st0" d="M15,59c1.3-0.6,2.8-0.5,4.4,0c1.7,0.6,2.9,1.5,3.6,2.7c0.7,1.2,0.8,2.6,0.3,4.1c-0.5,1.5-1.4,2.6-2.7,3.1
		c-1.3,0.5-2.8,0.5-4.4,0c-1.7-0.6-2.9-1.5-3.6-2.7c-0.7-1.2-0.8-2.6-0.3-4.1C12.8,60.6,13.7,59.6,15,59z M14.1,65.2
		c0.5,0.8,1.4,1.4,2.7,1.8c1.2,0.4,2.3,0.5,3.2,0.2c0.9-0.3,1.5-0.9,1.8-1.9c0.3-1,0.2-1.8-0.3-2.6c-0.5-0.8-1.4-1.4-2.7-1.8
		c-1.2-0.4-2.3-0.5-3.2-0.2c-0.9,0.3-1.5,0.9-1.8,1.9C13.5,63.6,13.6,64.4,14.1,65.2z"/>
	<path class="st0" d="M30,50.8l-4.7-1.3c-0.6-0.2-1-0.3-1.2-0.3c-1.3-0.3-2.4-0.7-3.5-1l0,0c0.8,0.8,1.7,1.6,2.6,2.6
		c0.2,0.1,0.4,0.4,0.9,0.9l3.4,3.5l-1.4,2.3l-10.9-3l1-1.7l4.5,1.3c1.4,0.4,3,0.9,4.8,1.4l0,0c-1.2-1.2-2.4-2.3-3.5-3.5l-3.4-3.4
		l1.4-2.3l4.7,1.3l4.7,1.4l0,0c-1.4-1.4-2.6-2.5-3.6-3.5l-3.3-3.3l1-1.7l8,8L30,50.8z"/>
	<path class="st0" d="M32.1,32.3c1,0,2.1,0.5,3.2,1.5l4.9,4.5L39,39.6l-4.8-4.4c-0.8-0.7-1.5-1.1-2.2-1.1c-0.6,0-1.2,0.3-1.8,0.9
		c-0.6,0.6-0.8,1.3-0.7,2.1c0.1,0.8,0.5,1.5,1.3,2.3l4.6,4.2L34.1,45L26,37.6l1.2-1.4l1.1,1l0,0c-0.2-0.6-0.1-1.2,0-1.8
		c0.2-0.6,0.5-1.2,1-1.7C30.1,32.7,31.1,32.3,32.1,32.3z"/>
	<path class="st0" d="M54.4,21.4c0.7,1.2,0.9,2.6,0.6,4c-0.4,1.4-1.2,2.5-2.4,3.2c-1.2,0.7-2.6,0.9-4,0.6c-1.4-0.4-2.5-1.2-3.2-2.4
		c-0.7-1.2-0.9-2.6-0.6-4c0.4-1.4,1.2-2.5,2.4-3.2c1.2-0.7,2.6-0.9,4-0.6C52.6,19.3,53.7,20.1,54.4,21.4z"/>
</g>
</svg>
